HIERARCHY
ROOT Hips
{
 OFFSET 0.000000 0.000000 0.000000
 CHANNELS 6 Xposition Yposition Zposition Yrotation Xrotation Zrotation
 JOINT Chest
 {
  OFFSET 0.000000 9.585900 0.002600
  CHANNELS 3 Yrotation Xrotation Zrotation
  JOINT Chest2
  {
   OFFSET 0.000000 9.601200 -0.005300
   CHANNELS 3 Yrotation Xrotation Zrotation
   JOINT Chest3
   {
    OFFSET 0.000000 9.561800 0.000000
    CHANNELS 3 Yrotation Xrotation Zrotation
    JOINT Chest4
    {
     OFFSET 0.000000 9.552100 0.000000
     CHANNELS 3 Yrotation Xrotation Zrotation
     JOINT Neck
     {
      OFFSET 0.000000 14.453000 0.000000
      CHANNELS 3 Yrotation Xrotation Zrotation
      JOINT Head
      {
       OFFSET 0.000000 8.936500 -0.011300
       CHANNELS 3 Yrotation Xrotation Zrotation
       End Site
       {
        OFFSET 0.000000 17.073600 -0.006000
       }
      }
     }
     JOINT RightCollar
     {
      OFFSET -2.921100 9.558500 0.000000
      CHANNELS 3 Yrotation Xrotation Zrotation
      JOINT RightShoulder
      {
       OFFSET -13.519700 0.000000 0.000000
       CHANNELS 3 Yrotation Xrotation Zrotation
       JOINT RightElbow
       {
        OFFSET 0.000000 -29.696600 0.000000
        CHANNELS 3 Yrotation Xrotation Zrotation
        JOINT RightWrist
        {
         OFFSET 0.000000 -24.004700 0.000000
         CHANNELS 3 Yrotation Xrotation Zrotation
         End Site
         {
          OFFSET 0.000000 -17.728500 0.000000
         }
        }
       }
      }
     }
     JOINT LeftCollar
     {
      OFFSET 2.921100 9.558500 0.000000
      CHANNELS 3 Yrotation Xrotation Zrotation
      JOINT LeftShoulder
      {
       OFFSET 13.519700 0.000000 0.000000
       CHANNELS 3 Yrotation Xrotation Zrotation
       JOINT LeftElbow
       {
        OFFSET 0.000000 -29.696600 0.000000
        CHANNELS 3 Yrotation Xrotation Zrotation
        JOINT LeftWrist
        {
         OFFSET 0.000000 -24.004700 0.000000
         CHANNELS 3 Yrotation Xrotation Zrotation
         End Site
         {
          OFFSET 0.000000 -17.728500 0.000000
         }
        }
       }
      }
     }
    }
   }
  }
 }
 JOINT RightHip
 {
  OFFSET -7.771700 -0.012900 -0.001300
  CHANNELS 3 Yrotation Xrotation Zrotation
  JOINT RightKnee
  {
   OFFSET 0.000000 -40.869800 0.001200
   CHANNELS 3 Yrotation Xrotation Zrotation
   JOINT RightAnkle
   {
    OFFSET 0.000000 -39.717900 0.002100
    CHANNELS 3 Yrotation Xrotation Zrotation
    JOINT RightToe
    {
     OFFSET 0.000000 -4.965400 11.033500
     CHANNELS 3 Yrotation Xrotation Zrotation
     End Site
     {
      OFFSET 0.000000 -1.423100 5.872300
     }
    }
   }
  }
 }
 JOINT LeftHip
 {
  OFFSET 7.771700 -0.012900 -0.001300
  CHANNELS 3 Yrotation Xrotation Zrotation
  JOINT LeftKnee
  {
   OFFSET 0.000000 -40.869800 0.001200
   CHANNELS 3 Yrotation Xrotation Zrotation
   JOINT LeftAnkle
   {
    OFFSET 0.000000 -39.717900 0.002100
    CHANNELS 3 Yrotation Xrotation Zrotation
    JOINT LeftToe
    {
     OFFSET 0.000000 -4.965400 11.033500
     CHANNELS 3 Yrotation Xrotation Zrotation
     End Site
     {
      OFFSET 0.000000 -1.423100 5.872300
     }
    }
   }
  }
 }
}
MOTION
Frames: 7
Frame Time: 0.008333
0.000000 85.388000 0.000000 0.000000 -5.767877 0.000000 0.000000 11.653817 0.000000 0.000000 -5.885947 0.000000 0.000000 -0.000000 0.000000 0.000000 -0.000000 0.000000 0.000000 12.528835 0.000000 0.000000 0.711642 0.000000 0.000000 -0.000000 0.000000 0.000000 0.000000 -90.000000 0.000000 -2.309062 0.000000 0.000000 2.309062 0.000000 0.000000 -0.000000 0.000000 0.000000 -0.000000 90.000000 0.000000 -2.309062 0.000000 0.000000 2.309062 0.000000 0.000000 8.520406 0.000000 0.000000 1.905762 0.000000 -0.000000 -4.658285 0.000000 0.000000 -0.000000 0.000000 0.000000 8.520406 0.000000 0.000000 1.905762 0.000000 -0.000000 -4.658285 0.000000 0.000000 -0.000000 0.000000
-67.242610 63.291310 12.288665 164.746949 -54.081388 -2.491445 7.410166 25.350999 4.972638 1.136458 4.273960 0.425753 1.824676 6.787906 0.717881 6.088172 20.775005 3.012236 13.693835 18.925655 4.734679 23.531331 -0.428204 4.365624 5.736272 8.577146 7.157896 -8.796060 -15.891547 -11.644644 -88.989288 -46.685734 129.966369 1.589099 -19.250024 -11.218058 -7.279812 7.578185 1.631488 11.795389 -12.189739 7.992786 88.126282 -48.194894 -125.258558 25.035049 -11.058309 -4.462557 -4.801487 -6.287282 9.353672 -26.632795 73.872970 -24.591232 0.897776 -13.025805 -2.248098 -0.346008 0.798798 -0.130293 -1.925197 -12.631693 0.446845 12.846924 62.069080 6.141126 -3.994359 -6.043596 1.033553 -0.260286 -0.650279 -0.097028
-67.247875 63.292692 12.288855 164.758677 -54.080669 -2.495704 7.406579 25.350926 4.981977 1.136235 4.274437 0.427745 1.824257 6.788429 0.721067 6.098628 20.777246 3.049388 13.688113 18.942228 4.724652 23.570640 -0.405796 4.402692 5.705517 8.677466 7.160463 -8.723410 -16.011302 -11.628163 -88.935188 -46.697055 129.848964 1.492198 -19.243763 -11.219472 -7.364822 7.708014 1.602164 11.910756 -12.210653 7.925641 88.199585 -48.156123 -125.173425 25.060369 -11.064378 -4.350793 -4.803702 -6.286995 9.352466 -26.644804 73.867813 -24.614895 0.904500 -13.023817 -2.232170 -0.355715 0.798678 -0.134803 -1.929261 -12.629940 0.437272 12.857347 62.061763 6.142873 -3.964573 -6.045118 1.032677 -0.273950 -0.650710 -0.097034
-67.252739 63.295245 12.288758 164.772256 -54.086564 -2.506265 7.401389 25.357592 4.994167 1.141662 4.279623 0.442711 1.824990 6.793069 0.728072 6.090203 20.779444 3.043008 13.686192 18.952033 4.732853 23.564034 -0.389161 4.419501 5.689728 8.767201 7.189515 -8.642038 -16.120556 -11.625670 -88.720108 -46.673950 129.581592 1.491623 -19.250980 -11.167075 -7.419370 7.797154 1.599776 11.979569 -12.251156 7.873905 88.237719 -48.134443 -125.017048 25.017539 -11.047464 -4.267321 -4.798924 -6.277357 9.361971 -26.674142 73.855828 -24.650190 0.895616 -13.025447 -2.224457 -0.351586 0.803105 -0.132178 -1.930463 -12.621305 0.432463 12.854280 62.055941 6.140930 -3.951152 -6.045279 1.027645 -0.285467 -0.649972 -0.092157
-67.257929 63.298233 12.288600 164.777418 -54.094199 -2.509030 7.406141 25.368926 5.012583 1.137050 4.279098 0.433315 1.832015 6.805008 0.739046 6.081911 20.772832 3.038125 13.683145 18.961775 4.742434 23.531616 -0.374477 4.436670 5.686092 8.858366 7.234138 -8.551707 -16.218533 -11.638091 -88.474110 -46.674760 129.294857 1.501489 -19.248143 -11.112958 -7.447746 7.849264 1.603299 12.043822 -12.191482 7.827821 88.368066 -48.150918 -124.980948 24.906721 -10.993518 -4.231051 -4.794331 -6.265821 9.366097 -26.688592 73.845164 -24.672171 0.894950 -13.024668 -2.223759 -0.353657 0.805357 -0.133513 -1.927886 -12.610227 0.429475 12.836444 62.049628 6.125947 -3.955400 -6.040351 1.027342 -0.286680 -0.652583 -0.093207
-67.263354 63.300729 12.288969 164.787281 -54.096934 -2.514079 7.402592 25.375223 5.016172 1.137423 4.281016 0.434323 1.842704 6.823182 0.752294 6.068786 20.761718 3.029774 13.673183 18.959456 4.736679 23.472862 -0.354122 4.458323 5.687227 8.944990 7.281460 -8.498461 -16.315871 -11.670189 -88.214711 -46.682554 129.046386 1.492114 -19.209586 -11.074120 -7.462371 7.857432 1.599476 12.086241 -12.107565 7.798233 88.537413 -48.210155 -124.962078 24.737114 -10.883449 -4.253101 -4.792150 -6.258892 9.368578 -26.703490 73.832911 -24.692381 0.889795 -13.024719 -2.218427 -0.350270 0.809571 -0.129613 -1.929718 -12.605147 0.424491 12.815741 62.042628 6.114013 -3.978484 -6.033549 1.021694 -0.289908 -0.656100 -0.098684
-67.267269 63.302911 12.290226 164.796639 -54.095898 -2.526057 7.425358 25.397239 5.061419 1.140116 4.293780 0.438874 1.830536 6.817106 0.738954 6.099501 20.807308 3.073632 13.603114 18.924906 4.694110 23.387163 -0.342111 4.438809 5.648357 8.966690 7.284146 -8.450588 -16.408328 -11.704082 -87.930836 -46.706815 128.790662 1.483040 -19.150963 -11.037913 -7.541571 7.929621 1.600065 12.151296 -12.194399 7.710685 88.721405 -48.308617 -124.917257 24.515260 -10.711727 -4.338907 -4.792035 -6.254899 9.376597 -26.700836 73.821532 -24.692896 0.886359 -13.023257 -2.215488 -0.350581 0.813598 -0.127649 -1.933713 -12.603711 0.420313 12.813930 62.035124 6.117925 -3.957998 -6.035526 1.019550 -0.273206 -0.659531 -0.106452
